# xmcd
#
# Track frame offsets:
# 150
# 18457
# 32174
# 49228
# 64422
# 76161
# 92730
# 115044
# 137984
# 151979
# 170730
# 185956
# 204073
# 224413
# 244347
#
# Disc length: 3567 seconds
#
#
# Revision: 0
# Processed by: cddbd v1.5.1PL2 Copyright (c) Steve Scherf et al.
# Submitted via: FreeRIP 2.942 
#
DISCID=d90ded0f
DTITLE=Gaither Vocal Band - Give It Away
DYEAR=2006
DGENRE=Gospel
TTITLE0=Bread Upon the Water
TTITLE1=I Catch 'Em, God Cleans 'Em
TTITLE2=Jesus Loves Me
TTITLE3=I'll Tell It Wherever I Go
TTITLE4=My Journey to the Sky
TTITLE5=Through
TTITLE6=Glorious Impossible
TTITLE7=Worthy the Lamb
TTITLE8=Eagle Song
TTITLE9=Love Can Turn the World
TTITLE10=Child Forgiven
TTITLE11=Why Me
TTITLE12=I Will Go On
TTITLE13=Place Called Hope
TTITLE14=Give It Away
EXTD=Spring House Music\nExecutive Producer: Bill Gaither
EXTT0=
EXTT1=
EXTT2=
EXTT3=
EXTT4=
EXTT5=
EXTT6=
EXTT7=
EXTT8=
EXTT9=
EXTT10=
EXTT11=
EXTT12=
EXTT13=
EXTT14=
PLAYORDER=
